# xmcd CD database file
#
# Track frame offsets:
#	150
#	900
#	1650
#	2400
#	3150
#	3900
#	4650
#	5400
#	6150
#	6900
#	7650
#	8400
#	9150
#	9900
#	10650
#	339895
#
# Disc length: 4795 seconds
#
# Revision: 9
# Processed by: cddbd v1.5PL3 Copyright (c) Steve Scherf et al.
# Submitted via: CDex 1.51
#
DISCID=6712b910
DTITLE=EVERY LITTLE THING - ﾌ､ﾃﾎ
DYEAR=1900
DGENRE=
TTITLE0=･ﾈ･鬣ﾃ･ｯ 1
TTITLE1=･ﾈ･鬣ﾃ･ｯ 2
TTITLE2=･ﾈ･鬣ﾃ･ｯ 3
TTITLE3=･ﾈ･鬣ﾃ･ｯ 4
TTITLE4=･ﾈ･鬣ﾃ･ｯ 5
TTITLE5=･ﾈ･鬣ﾃ･ｯ 6
TTITLE6=･ﾈ･鬣ﾃ･ｯ 7
TTITLE7=･ﾈ･鬣ﾃ･ｯ 8
TTITLE8=･ﾈ･鬣ﾃ･ｯ 9
TTITLE9=･ﾈ･鬣ﾃ･ｯ 10
TTITLE10=･ﾈ･鬣ﾃ･ｯ 11
TTITLE11=･ﾈ･鬣ﾃ･ｯ 12
TTITLE12=･ﾈ･鬣ﾃ･ｯ 13
TTITLE13=･ﾈ･鬣ﾃ･ｯ 14
TTITLE14=･ﾈ･鬣ﾃ･ｯ 15
TTITLE15=･ﾈ･鬣ﾃ･ｯ 16
EXTD=
EXTT0=
EXTT1=
EXTT2=
EXTT3=
EXTT4=
EXTT5=
EXTT6=
EXTT7=
EXTT8=
EXTT9=
EXTT10=
EXTT11=
EXTT12=
EXTT13=
EXTT14=
EXTT15=
PLAYORDER=
